<?xml version="1.0" encoding="UTF-8" standalone="no"?>
<!DOCTYPE svg PUBLIC "-//W3C//DTD SVG 20010904//EN"
              "http://www.w3.org/TR/2001/REC-SVG-20010904/DTD/svg10.dtd">

<svg xmlns="http://www.w3.org/2000/svg"
     width="8.95833in" height="5.59722in"
     viewBox="0 0 645 403">
  <path id="Seleção"
        fill="#ffffff" stroke="white" stroke-width="1"
        d="M 39.00,129.00
           C 39.00,129.00 39.00,59.00 39.00,59.00
             39.00,59.00 39.00,44.00 39.00,44.00
             39.00,44.00 40.60,38.02 40.60,38.02
             40.60,38.02 48.00,37.00 48.00,37.00
             48.00,37.00 131.00,37.00 131.00,37.00
             131.00,37.00 131.00,46.00 131.00,46.00
             131.00,46.00 48.00,46.00 48.00,46.00
             48.00,46.00 48.00,129.00 48.00,129.00
             48.00,129.00 39.00,129.00 39.00,129.00 Z
           M 515.00,37.00
           C 515.00,37.00 585.00,37.00 585.00,37.00
             585.00,37.00 600.00,37.00 600.00,37.00
             601.95,37.04 604.63,36.90 605.98,38.60
             607.23,40.19 607.00,44.01 607.00,46.00
             607.00,46.00 607.00,110.00 607.00,110.00
             607.00,114.76 609.53,130.77 601.14,128.67
             597.33,127.71 598.01,123.04 598.00,120.00
             598.00,120.00 598.00,46.00 598.00,46.00
             598.00,46.00 515.00,46.00 515.00,46.00
             515.00,46.00 515.00,37.00 515.00,37.00 Z
           M 112.60,86.02
           C 116.89,84.20 126.05,84.91 131.00,85.00
             132.95,85.04 135.63,84.90 136.98,86.60
             138.23,88.19 138.00,92.01 138.00,94.00
             138.00,94.00 138.00,265.00 138.00,265.00
             138.00,265.00 138.00,310.00 138.00,310.00
             137.99,316.74 138.49,318.86 131.00,319.00
             131.00,319.00 118.00,319.00 118.00,319.00
             110.51,318.86 111.01,316.74 111.00,310.00
             111.00,310.00 111.00,146.00 111.00,146.00
             111.00,146.00 111.00,103.00 111.00,103.00
             111.00,98.15 109.80,89.93 112.60,86.02 Z
           M 163.59,86.04
           C 168.70,84.29 168.92,87.92 169.00,92.00
             169.00,92.00 169.00,139.00 169.00,139.00
             169.00,139.00 169.00,277.00 169.00,277.00
             169.00,277.00 169.00,312.00 169.00,312.00
             168.95,314.66 168.58,320.05 164.30,318.34
             161.49,317.23 162.00,312.46 162.00,310.00
             162.00,310.00 162.00,146.00 162.00,146.00
             162.00,146.00 162.00,103.00 162.00,103.00
             162.00,98.18 160.79,89.91 163.59,86.04 Z
           M 228.00,319.00
           C 228.00,319.00 206.00,319.00 206.00,319.00
             204.05,318.96 201.37,319.10 200.02,317.40
             198.77,315.81 199.00,311.99 199.00,310.00
             199.00,310.00 199.00,140.00 199.00,140.00
             199.00,140.00 199.00,94.00 199.00,94.00
             199.01,87.26 198.51,85.14 206.00,85.00
             206.00,85.00 220.00,85.00 220.00,85.00
             220.00,85.00 228.00,85.00 228.00,85.00
             228.00,85.00 228.00,319.00 228.00,319.00 Z
           M 251.60,86.02
           C 254.24,84.90 260.90,83.97 262.98,86.60
             264.04,87.94 263.97,90.38 264.00,92.00
             264.00,92.00 264.00,138.00 264.00,138.00
             264.00,138.00 264.00,310.00 264.00,310.00
             264.00,311.99 264.23,315.81 262.98,317.40
             261.20,319.65 252.80,319.65 251.02,317.40
             249.77,315.81 250.00,311.99 250.00,310.00
             250.00,310.00 250.00,146.00 250.00,146.00
             250.00,146.00 250.00,103.00 250.00,103.00
             250.00,98.15 248.80,89.93 251.60,86.02 Z
           M 288.60,86.02
           C 291.55,84.77 302.80,83.84 304.98,86.60
             306.04,87.94 305.97,90.38 306.00,92.00
             306.00,92.00 306.00,138.00 306.00,138.00
             306.00,138.00 306.00,277.00 306.00,277.00
             306.00,277.00 306.00,306.00 306.00,306.00
             306.00,308.54 306.44,315.55 304.98,317.40
             303.25,319.58 296.67,319.04 294.00,319.00
             286.51,318.86 287.01,316.74 287.00,310.00
             287.00,310.00 287.00,146.00 287.00,146.00
             287.00,146.00 287.00,103.00 287.00,103.00
             287.00,98.15 285.80,89.93 288.60,86.02 Z
           M 337.60,86.02
           C 341.79,84.24 350.21,84.92 355.00,85.00
             356.95,85.04 359.63,84.90 360.98,86.60
             362.23,88.19 362.00,92.01 362.00,94.00
             362.00,94.00 362.00,265.00 362.00,265.00
             362.00,265.00 362.00,310.00 362.00,310.00
             361.99,316.74 362.49,318.86 355.00,319.00
             355.00,319.00 343.00,319.00 343.00,319.00
             335.51,318.86 336.01,316.74 336.00,310.00
             336.00,310.00 336.00,146.00 336.00,146.00
             336.00,146.00 336.00,103.00 336.00,103.00
             336.00,98.15 334.80,89.93 337.60,86.02 Z
           M 383.00,85.00
           C 383.00,85.00 408.00,85.00 408.00,85.00
             408.00,85.00 408.00,319.00 408.00,319.00
             408.00,319.00 383.00,319.00 383.00,319.00
             383.00,319.00 383.00,85.00 383.00,85.00 Z
           M 433.58,86.08
           C 438.49,84.79 437.98,89.48 437.92,93.00
             437.92,93.00 437.92,139.00 437.92,139.00
             437.92,139.00 437.92,310.00 437.92,310.00
             438.00,311.43 438.06,314.59 437.92,315.85
             436.74,319.06 433.80,319.12 432.60,316.68
             431.87,315.22 432.00,311.70 432.00,310.00
             432.00,310.00 432.00,146.00 432.00,146.00
             432.00,146.00 432.00,103.00 432.00,103.00
             432.00,98.23 430.79,89.89 433.58,86.08 Z
           M 471.60,86.02
           C 474.24,84.90 480.90,83.97 482.98,86.60
             484.04,87.94 483.97,90.38 484.00,92.00
             484.00,92.00 484.00,138.00 484.00,138.00
             484.00,138.00 484.00,310.00 484.00,310.00
             484.00,311.99 484.23,315.81 482.98,317.40
             481.20,319.65 472.80,319.65 471.02,317.40
             469.77,315.81 470.00,311.99 470.00,310.00
             470.00,310.00 470.00,146.00 470.00,146.00
             470.00,146.00 470.00,103.00 470.00,103.00
             470.00,98.15 468.80,89.93 471.60,86.02 Z
           M 503.60,86.02
           C 507.87,84.20 522.59,84.90 528.00,85.00
             529.62,85.03 532.06,84.96 533.40,86.02
             535.38,87.59 535.00,91.70 535.00,94.00
             535.00,94.00 535.00,267.00 535.00,267.00
             535.00,267.00 535.00,312.00 535.00,312.00
             534.86,319.49 532.74,318.99 526.00,319.00
             526.00,319.00 509.00,319.00 509.00,319.00
             501.51,318.86 502.01,316.74 502.00,310.00
             502.00,310.00 502.00,146.00 502.00,146.00
             502.00,146.00 502.00,103.00 502.00,103.00
             502.00,98.15 500.80,89.93 503.60,86.02 Z
           M 39.00,275.00
           C 39.00,275.00 48.00,275.00 48.00,275.00
             48.00,275.00 48.00,358.00 48.00,358.00
             48.00,358.00 131.00,358.00 131.00,358.00
             131.00,358.00 131.00,367.00 131.00,367.00
             131.00,367.00 61.00,367.00 61.00,367.00
             61.00,367.00 46.00,367.00 46.00,367.00
             46.00,367.00 40.02,365.40 40.02,365.40
             40.02,365.40 39.00,358.00 39.00,358.00
             39.00,358.00 39.00,275.00 39.00,275.00 Z
           M 598.00,275.00
           C 598.00,275.00 607.00,275.00 607.00,275.00
             607.00,275.00 607.00,345.00 607.00,345.00
             607.00,345.00 607.00,360.00 607.00,360.00
             607.00,360.00 605.40,365.98 605.40,365.98
             605.40,365.98 598.00,367.00 598.00,367.00
             598.00,367.00 515.00,367.00 515.00,367.00
             515.00,367.00 515.00,358.00 515.00,358.00
             515.00,358.00 598.00,358.00 598.00,358.00
             598.00,358.00 598.00,275.00 598.00,275.00 Z" />
</svg>
